<svg xmlns="http://www.w3.org/2000/svg" aria-hidden="true" style="position:absolute;width:0;height:0;overflow:hidden"><defs><symbol id="icon-linkedin" viewBox="0 0 32 32"><path d="M12 12h5.535v2.837h.079c.77-1.381 2.655-2.837 5.464-2.837C28.92 12 30 15.637 30 20.367V30h-5.769v-8.54c0-2.037-.042-4.657-3.001-4.657-3.005 0-3.463 2.218-3.463 4.509V30H12V12zM2 12h6v18H2V12zM8 7c0 1.657-1.343 3-3 3S2 8.657 2 7s1.343-3 3-3 3 1.343 3 3z"/></symbol>

<symbol id="icon-twitter" viewBox="0 0 32 32"><path d="M32 7.075c-1.175.525-2.444.875-3.769 1.031 1.356-.813 2.394-2.1 2.887-3.631-1.269.75-2.675 1.3-4.169 1.594C25.749 4.794 24.043 4 22.155 4c-3.625 0-6.563 2.938-6.563 6.563 0 .512.056 1.012.169 1.494-5.456-.275-10.294-2.888-13.531-6.862-.563.969-.887 2.1-.887 3.3 0 2.275 1.156 4.287 2.919 5.463-1.075-.031-2.087-.331-2.975-.819v.081c0 3.181 2.263 5.838 5.269 6.437-.55.15-1.131.231-1.731.231-.425 0-.831-.044-1.237-.119.838 2.606 3.263 4.506 6.131 4.563-2.25 1.762-5.075 2.813-8.156 2.813-.531 0-1.05-.031-1.569-.094 2.913 1.869 6.362 2.95 10.069 2.95 12.075 0 18.681-10.006 18.681-18.681 0-.287-.006-.569-.019-.85 1.281-.919 2.394-2.075 3.275-3.394z"/></symbol>

<symbol id="icon-instagram" viewBox="0 0 32 32"><path d="M16 2.881c4.275 0 4.781.019 6.462.094 1.563.069 2.406.331 2.969.55.744.288 1.281.638 1.837 1.194.563.563.906 1.094 1.2 1.838.219.563.481 1.412.55 2.969.075 1.688.094 2.194.094 6.463s-.019 4.781-.094 6.463c-.069 1.563-.331 2.406-.55 2.969-.288.744-.637 1.281-1.194 1.837-.563.563-1.094.906-1.837 1.2-.563.219-1.413.481-2.969.55-1.688.075-2.194.094-6.463.094s-4.781-.019-6.463-.094c-1.563-.069-2.406-.331-2.969-.55-.744-.288-1.281-.637-1.838-1.194-.563-.563-.906-1.094-1.2-1.837-.219-.563-.481-1.413-.55-2.969-.075-1.688-.094-2.194-.094-6.463s.019-4.781.094-6.463c.069-1.563.331-2.406.55-2.969.288-.744.638-1.281 1.194-1.838.563-.563 1.094-.906 1.838-1.2.563-.219 1.412-.481 2.969-.55 1.681-.075 2.188-.094 6.463-.094zM16 0c-4.344 0-4.887.019-6.594.094-1.7.075-2.869.35-3.881.744-1.056.412-1.95.956-2.837 1.85-.894.888-1.438 1.781-1.85 2.831C.444 6.538.169 7.7.094 9.4.019 11.113 0 11.656 0 16s.019 4.887.094 6.594c.075 1.7.35 2.869.744 3.881.413 1.056.956 1.95 1.85 2.837.887.887 1.781 1.438 2.831 1.844 1.019.394 2.181.669 3.881.744 1.706.075 2.25.094 6.594.094s4.888-.019 6.594-.094c1.7-.075 2.869-.35 3.881-.744 1.05-.406 1.944-.956 2.831-1.844s1.438-1.781 1.844-2.831c.394-1.019.669-2.181.744-3.881.075-1.706.094-2.25.094-6.594s-.019-4.887-.094-6.594c-.075-1.7-.35-2.869-.744-3.881-.394-1.063-.938-1.956-1.831-2.844-.887-.887-1.781-1.438-2.831-1.844-1.019-.394-2.181-.669-3.881-.744-1.712-.081-2.256-.1-6.6-.1z"/><path d="M16 7.781c-4.537 0-8.219 3.681-8.219 8.219s3.681 8.219 8.219 8.219 8.219-3.681 8.219-8.219c0-4.537-3.681-8.219-8.219-8.219zm0 13.55c-2.944 0-5.331-2.387-5.331-5.331s2.387-5.331 5.331-5.331c2.944 0 5.331 2.387 5.331 5.331S18.944 21.331 16 21.331zM26.462 7.456c0 1.06-.859 1.919-1.919 1.919s-1.919-.859-1.919-1.919.859-1.919 1.919-1.919 1.919.859 1.919 1.919z"/></symbol>

<symbol id="icon-facebook" viewBox="0 0 16 28"><path d="M14.984.187v4.125h-2.453c-1.922 0-2.281.922-2.281 2.25v2.953h4.578l-.609 4.625H10.25v11.859H5.469V14.14H1.485V9.515h3.984V6.109C5.469 2.156 7.891 0 11.422 0c1.687 0 3.141.125 3.563.187z"/></symbol>

<symbol id="icon-telefono-inteligente" viewBox="0 0 20 32"><path  d="M17 0H3C1.346 0 0 1.346 0 3v26c0 1.654 1.346 3 3 3h14c1.654 0 3-1.346 3-3V3c0-1.654-1.346-3-3-3zM3 2h14c.552 0 1 .448 1 1v21H2V3c0-.552.448-1 1-1zm14 28H3c-.552 0-1-.448-1-1v-3h16v3c0 .552-.448 1-1 1z"/><path  d="M4.707 27.478c.391.365.391.956 0 1.321s-1.024.365-1.414 0c-.391-.365-.391-.956 0-1.321s1.024-.365 1.414 0z"/></symbol>

<symbol id="icon-sobre" viewBox="0 0 43 32"><path  d="M38.667 0H4C1.794 0 0 1.794 0 4v24c0 2.206 1.794 4 4 4h34.667c2.206 0 4-1.794 4-4V4c0-2.206-1.794-4-4-4zm0 2.667c.181 0 .353.038.511.103L21.334 18.236 3.49 2.77c.158-.066.33-.103.511-.103h34.667zm0 26.666H4c-.736 0-1.333-.598-1.333-1.333V5.587L20.46 21.008c.251.217.563.326.874.326s.622-.108.874-.326L40.001 5.587V28c0 .736-.598 1.333-1.333 1.333z"/></symbol>

<symbol id="icon-Company-Tag" viewBox="0 0 67 32"><path fill="#afb1b8" d="M33.724 15.285c-.315-.419-.466-.915-.43-1.414v-2.05c0-.628.142-1.106.428-1.433s.775-.489 1.469-.488c.652 0 1.115.139 1.389.417.299.355.444.789.411 1.226v.482h-1.167v-.488c.004-.16-.007-.319-.034-.478-.017-.108-.076-.208-.167-.284-.12-.082-.271-.121-.423-.111-.16-.01-.318.031-.444.117-.102.084-.169.193-.193.313-.033.167-.049.337-.046.507v2.488c-.018.24.033.48.15.699.058.074.139.133.233.169s.198.05.301.039c.149.011.298-.03.413-.113.095-.082.156-.188.174-.302.027-.165.039-.332.036-.498v-.505h1.167v.461c.033.456-.109.909-.403 1.289-.268.304-.725.457-1.396.457s-1.179-.163-1.466-.501zM38.583 15.306c-.295-.319-.442-.784-.442-1.399V11.75c0-.609.147-1.07.442-1.383s.788-.469 1.478-.467c.686 0 1.177.156 1.471.467.295.313.444.774.444 1.383v2.157c0 .609-.15 1.076-.449 1.397s-.788.482-1.466.482c-.679 0-1.181-.163-1.478-.48zm2.022-.517c.106-.2.154-.419.14-.638v-2.64c.014-.215-.034-.43-.138-.626-.059-.076-.142-.135-.238-.172s-.203-.05-.308-.037c-.105-.013-.212 0-.308.037s-.18.096-.24.172c-.106.195-.154.41-.14.626v2.653c-.015.219.033.439.14.638.068.067.152.121.246.158s.196.056.3.056c.103 0 .206-.019.3-.056s.178-.091.246-.158v-.012zM43.38 9.963h1.256l.945 3.979.966-3.979h1.222l.123 5.743h-.904l-.097-3.992-.932 3.992h-.725l-.966-4.006-.089 4.006h-.913l.114-5.743zM49.301 9.963h1.957c1.127 0 1.691.544 1.691 1.631 0 1.041-.593 1.561-1.78 1.56h-.667v2.553h-1.208l.007-5.743zm1.672 2.455c.119.013.24.004.355-.028s.22-.084.309-.154c.139-.194.2-.422.174-.649.006-.175-.013-.35-.058-.521-.017-.057-.047-.111-.089-.158s-.093-.086-.153-.116c-.168-.069-.353-.101-.539-.092h-.469v1.716h.469zM54.691 9.963h1.297l1.331 5.743h-1.126l-.263-1.324h-1.157l-.271 1.324h-1.143l1.331-5.743zm1.109 3.754-.452-2.411-.452 2.411h.903zM58.395 9.963h.846l1.619 3.276V9.963h1.003v5.743h-.804l-1.628-3.42v3.42h-1.036l.002-5.743zM64.209 13.517l-1.346-3.545h1.133l.821 2.277.771-2.277h1.109l-1.329 3.545v2.19h-1.16v-2.19zM35.589 18.218v.3h-.986v2.334h-.413v-2.334h-.99v-.3h2.389zM38.679 20.852h-.319c-.032.002-.064-.007-.089-.025-.024-.015-.043-.036-.053-.06l-.285-.626h-1.367l-.285.626c-.008.026-.023.05-.044.071-.025.017-.057.026-.089.025h-.319l1.208-2.634h.42l1.222 2.624zm-2-.978h1.14l-.483-1.072c-.036-.081-.066-.164-.089-.248-.017.05-.031.098-.046.14l-.044.11-.478 1.07zM40.762 20.593c.076.003.151.003.227 0 .065-.006.13-.016.193-.031.059-.012.117-.029.174-.048.053-.019.106-.042.162-.065v-.592h-.483c-.012.001-.024-.001-.035-.005s-.021-.009-.03-.016c-.008-.006-.014-.013-.018-.022s-.006-.017-.006-.026v-.202h.937v1.01c-.077.047-.157.089-.242.125-.086.037-.176.067-.268.09-.099.025-.2.043-.302.054-.117.011-.235.017-.353.017-.208.002-.415-.032-.609-.098-.181-.063-.345-.156-.483-.275-.134-.12-.24-.262-.312-.417-.076-.175-.114-.36-.111-.547-.003-.188.034-.374.109-.551.069-.156.176-.298.312-.417.138-.119.302-.212.483-.273.207-.067.426-.1.647-.098.112 0 .225.008.336.023.098.014.195.036.288.067.084.027.165.062.242.104.074.041.144.087.21.138l-.116.163c-.009.015-.023.027-.039.036s-.036.014-.055.014c-.027-.001-.053-.008-.075-.021-.036-.017-.075-.038-.118-.063-.051-.028-.106-.052-.162-.071-.072-.025-.146-.044-.222-.058-.101-.016-.204-.024-.307-.023-.159-.002-.318.023-.466.073-.134.047-.256.118-.355.209-.1.095-.177.206-.225.327-.108.285-.108.593 0 .878.053.124.135.237.242.332.099.09.219.162.353.209.154.046.316.063.478.052zM44.612 20.551h1.319v.3h-1.722v-2.634h.413l-.01 2.334zM47.304 20.852h-.413v-2.634h.413v2.634zM48.84 18.23c.025.012.046.028.063.048l1.766 1.986c-.002-.031-.002-.063 0-.094v-1.962h.36v2.645h-.208c-.031.002-.062-.003-.089-.015-.025-.013-.047-.03-.065-.05l-1.764-1.983v2.048h-.345v-2.634h.215c.023 0 .046.004.068.012zM54.07 18.218v.29h-1.464v.87h1.186v.279h-1.186v.899h1.464v.29h-1.889v-2.628h1.889zM10.782 1.95l18.343 4.497v15.757l-18.343-4.495V1.95zM9.605.607v17.867l20.694 5.074V5.683L9.605.607z" style="fill:var(--color2, #afb1b8)"/><path fill="#afb1b8" d="M20.696 31.843 0 26.765V8.899l20.696 5.076v17.868z" style="fill:var(--color2, #afb1b8)"/><path fill="#afb1b8" d="m9.948 1.748 18.104 4.44-7.699 6.649L2.247 8.395l7.702-6.647zM9.605.607 0 8.899l20.696 5.076 9.603-8.292L9.605.607zM21.861 30.838l8.438-7.287-8.438-2.071v9.358z" style="fill:var(--color2, #afb1b8)"/></symbol>

<symbol id="icon-Brand" viewBox="0 0 43 32"><path fill="#afb1b8" d="M3.239 26.432c.166.188.254.424.25.665.008.158-.022.315-.089.46s-.169.275-.298.38c-.322.223-.722.332-1.125.307H0v-4.215h1.937c.382-.023.761.076 1.073.28.125.096.224.217.289.354s.095.286.086.435c.011.233-.068.461-.225.645-.15.168-.358.284-.589.329.262.044.499.172.668.36zM.92 25.796h.828c.188.013.375-.037.526-.14.062-.052.111-.116.141-.187s.043-.148.036-.225c.006-.076-.007-.153-.037-.224s-.078-.135-.138-.188c-.156-.106-.349-.156-.542-.142H.92v1.106zm1.435 1.616c.066-.053.119-.119.153-.193s.049-.155.043-.235c.005-.081-.01-.163-.045-.238s-.088-.142-.155-.195c-.162-.11-.361-.164-.562-.152H.921v1.159H1.8c.198.011.394-.041.556-.146zM7.197 28.244 6.12 26.596h-.405v1.648h-.927v-4.215h1.754c.442-.028.879.1 1.221.358.245.229.393.53.417.85s-.078.637-.287.894c-.216.227-.512.378-.837.428l1.147 1.685H7.195zm-1.482-2.222h.758c.526 0 .789-.213.789-.638.005-.087-.009-.174-.042-.255s-.085-.156-.151-.218c-.166-.127-.38-.188-.596-.171h-.767l.009 1.283zM12.262 27.396h-1.847l-.326.848h-.972l1.696-4.168h1.05l1.689 4.168h-.972l-.319-.848zm-.247-.639-.675-1.779-.675 1.779h1.349zM18.602 28.244h-.92l-2.062-2.867v2.867h-.918v-4.215h.918l2.062 2.883v-2.883h.92v4.215zM23.852 27.235c-.19.318-.48.577-.832.743-.4.185-.845.276-1.293.266H20.09v-4.215h1.637c.448-.011.891.078 1.293.259.352.163.642.419.832.735.189.343.288.722.288 1.106s-.099.763-.288 1.106zm-1.053-.101c.263-.28.407-.637.407-1.006s-.144-.726-.407-1.006c-.317-.254-.731-.382-1.152-.358h-.639v2.729h.639c.42.024.834-.105 1.152-.358zM12.838.581s11.873 4.104 11.621 10.043v10.045s-11.864-4.106-11.617-10.045L12.837.581zM35.037 18.318c2.242-1.413 4.836-2.288 7.544-2.545v-3.145c-3.12 1.101-5.766 3.097-7.544 5.69z" style="fill:var(--color2, #afb1b8)"/><path fill="#afb1b8" d="M33.69 19.266c1.835-3.384 5.017-5.995 8.891-7.296V2.909S25.672 8.755 26.03 17.213v14.302s.753-.262 1.939-.752c0-.457 0-.918.054-1.382.35-3.926 2.389-7.565 5.668-10.115z" style="fill:var(--color2, #afb1b8)"/><path fill="#afb1b8" d="M32.081 24.579c.089-.992.287-1.973.592-2.928-2.042 2.203-3.278 4.936-3.536 7.815-.025.272-.038.544-.045.824.96-.422 2.078-.949 3.252-1.569-.3-1.362-.388-2.756-.263-4.141zM32.754 24.63c-.113 1.253-.042 2.514.209 3.75 4.62-2.531 9.811-6.442 9.611-11.168V16.8c-3.301.338-6.389 1.659-8.79 3.76-.562 1.302-.909 2.674-1.03 4.069z" style="fill:var(--color2, #afb1b8)"/></symbol>

<symbol id="icon-Foster" viewBox="0 0 65 32"><path fill="#2196f3" d="M10.016 10.049h-.002c-1.827 0-3.308 1.316-3.308 2.94v.002c0 1.624 1.481 2.94 3.308 2.94h.002c1.827 0 3.308-1.316 3.308-2.94v-.002c0-1.624-1.481-2.94-3.308-2.94zM34.434 9.11c-.005-2.255-1.015-4.417-2.81-6.012S27.398.605 24.86.6c-2.538.004-4.972.902-6.767 2.497s-2.806 3.757-2.811 6.013v12.437s19.149-1.895 19.151-12.434v-.002zM0 25.628c.005 1.569.708 3.073 1.956 4.183s2.94 1.735 4.706 1.74c1.765-.005 3.457-.63 4.705-1.739s1.952-2.613 1.957-4.182v-8.653S-.001 18.297-.001 25.629zm6.662 1.55c-.345 0-.682-.091-.969-.261s-.511-.413-.643-.696-.167-.595-.099-.896.233-.577.477-.794c.244-.217.555-.364.893-.424s.689-.029 1.008.088c.319.117.591.316.783.571s.294.555.294.861c.001.204-.044.406-.131.595s-.216.36-.378.505c-.162.145-.355.259-.567.338s-.439.119-.669.119v-.006zM18.842 24.402v3.25h-.67v-3.25h.67zm1.295 1.389v.522h-1.478v-.522h1.478zm.156-1.389v.525h-1.634v-.525h1.634zm3.058 1.55v.154c0 .247-.033.469-.1.665s-.161.364-.284.502c-.122.137-.268.242-.438.315-.168.073-.355.109-.56.109-.204 0-.391-.036-.56-.109-.168-.073-.314-.178-.438-.315-.123-.138-.22-.306-.288-.502-.067-.196-.101-.418-.101-.665v-.154c0-.248.034-.47.101-.665.067-.196.161-.364.283-.502.123-.138.269-.244.438-.317.17-.073.356-.109.56-.109.205 0 .392.037.56.109.17.073.316.179.438.317.123.138.219.306.286.502.068.195.103.417.103.665zm-.676.154v-.158c0-.173-.016-.324-.047-.455s-.077-.241-.138-.33c-.061-.089-.135-.156-.223-.201-.088-.046-.188-.069-.301-.069s-.214.023-.301.069c-.086.045-.16.112-.221.201-.059.089-.105.199-.136.33s-.047.283-.047.455v.158c0 .171.016.323.047.455.031.131.077.242.138.333.061.089.135.157.223.203s.188.069.301.069c.113 0 .213-.023.301-.069s.161-.114.221-.203c.059-.091.105-.202.136-.333.031-.132.047-.284.047-.455zm2.85.696c0-.058-.009-.11-.027-.156-.016-.048-.048-.091-.094-.13-.046-.04-.111-.08-.194-.118s-.191-.079-.324-.121c-.147-.048-.287-.101-.42-.161-.131-.059-.247-.129-.348-.208-.1-.08-.178-.173-.237-.279-.057-.106-.085-.228-.085-.368 0-.135.03-.258.089-.368.059-.112.143-.207.25-.286.107-.08.234-.142.379-.185.147-.043.309-.065.484-.065.24 0 .449.043.627.129s.317.205.415.355c.1.15.15.322.15.516h-.665c0-.095-.02-.178-.06-.25-.039-.073-.098-.13-.179-.172-.079-.042-.179-.062-.299-.062-.116 0-.213.018-.29.054-.077.034-.135.081-.174.141-.039.058-.058.123-.058.196 0 .055.013.105.04.15.028.045.07.086.125.125s.123.075.203.109c.08.034.173.068.279.1.177.054.333.114.466.181.135.067.249.142.339.225s.159.178.205.284c.046.106.069.225.069.359 0 .141-.028.268-.083.379s-.135.206-.239.284-.228.136-.373.176c-.144.04-.306.06-.484.06-.161 0-.319-.021-.475-.062-.156-.043-.298-.108-.426-.194-.126-.086-.228-.196-.304-.33s-.114-.292-.114-.475h.672c0 .101.016.187.047.257s.075.126.132.17c.058.043.127.074.205.094.08.019.168.029.263.029.116 0 .211-.016.286-.049.076-.033.132-.078.167-.136.037-.058.056-.123.056-.196zm2.578-2.4v3.25h-.667v-3.25h.667zm1 0v.525h-2.652v-.525h2.652zm2.563 2.728v.522h-1.73v-.522h1.73zm-1.512-2.728v3.25h-.67v-3.25h.67zm1.286 1.324v.509h-1.504v-.509h1.504zm.223-1.324v.525h-1.728v-.525h1.728zm.393 0h1.212c.249 0 .462.037.641.112.18.074.318.185.415.33s.145.325.145.538c0 .174-.03.324-.089.449-.058.123-.141.227-.248.31-.106.082-.23.147-.373.197l-.212.112h-1.054l-.004-.522h.783c.118 0 .215-.021.292-.062s.135-.1.174-.174c.04-.074.06-.161.06-.259 0-.104-.019-.194-.058-.27s-.097-.134-.176-.174c-.079-.04-.178-.06-.297-.06h-.542v2.725h-.67v-3.25zm1.817 3.25-.741-1.449.708-.005.75 1.422v.031h-.717zm3.516-1.158h-.828v-.522h.828c.128 0 .232-.021.313-.062.08-.043.139-.103.176-.179s.056-.161.056-.257c0-.097-.019-.187-.056-.27s-.096-.15-.176-.201-.185-.076-.313-.076h-.596v2.725h-.67v-3.25h1.266c.254 0 .473.046.654.138.183.091.323.216.42.377s.145.344.145.551c0 .21-.048.391-.145.545s-.237.272-.42.355c-.181.083-.4.125-.654.125zm3.862.636v.522h-1.73v-.522h1.73zm-1.512-2.728v3.25h-.67v-3.25h.67zm1.286 1.324v.509h-1.504v-.509h1.504zm.223-1.324v.525H39.52v-.525h1.728zm1.891 0v3.25h-.667v-3.25h.667zm1 0v.525h-2.652v-.525h2.652zm2.562 2.728v.522h-1.73v-.522h1.73zm-1.511-2.728v3.25h-.67v-3.25h.67zm1.286 1.324v.509h-1.504v-.509h1.504zm.223-1.324v.525h-1.728v-.525h1.728zm.393 0h1.212c.249 0 .462.037.641.112.18.074.318.185.415.33s.145.325.145.538c0 .174-.03.324-.089.449-.058.123-.141.227-.248.31-.106.082-.23.147-.373.197l-.212.112h-1.054l-.005-.522h.784c.118 0 .215-.021.292-.062s.135-.1.174-.174c.04-.074.06-.161.06-.259 0-.104-.019-.194-.058-.27s-.097-.134-.176-.174c-.079-.04-.178-.06-.297-.06h-.542v2.725h-.67v-3.25zm1.817 3.25-.741-1.449.708-.005.75 1.422v.031h-.717zm2.804-.85c0-.058-.009-.11-.027-.156-.016-.048-.048-.091-.094-.13-.046-.04-.111-.08-.194-.118s-.191-.079-.324-.121c-.147-.048-.287-.101-.42-.161-.131-.059-.247-.129-.348-.208-.1-.08-.178-.173-.237-.279-.057-.106-.085-.228-.085-.368 0-.135.03-.258.089-.368.059-.112.143-.207.25-.286.107-.08.234-.142.379-.185.147-.043.309-.065.484-.065.24 0 .449.043.627.129s.317.205.415.355c.1.15.15.322.15.516h-.665c0-.095-.02-.178-.06-.25-.039-.073-.098-.13-.179-.172-.079-.042-.179-.062-.299-.062-.116 0-.213.018-.29.054-.077.034-.135.081-.174.141-.039.058-.058.123-.058.196 0 .055.013.105.04.15.028.045.07.086.125.125s.123.075.203.109c.08.034.173.068.279.1.177.054.333.114.467.181.135.067.249.142.339.225s.159.178.205.284c.046.106.069.225.069.359 0 .141-.028.268-.083.379s-.135.206-.239.284-.228.136-.373.176c-.144.04-.306.06-.484.06-.161 0-.319-.021-.475-.062-.156-.043-.298-.108-.426-.194-.126-.086-.228-.196-.304-.33s-.114-.292-.114-.475h.672c0 .101.016.187.047.257s.075.126.132.17c.058.043.127.074.205.094.08.019.168.029.263.029.116 0 .211-.016.286-.049.076-.033.132-.078.167-.136.037-.058.056-.123.056-.196z" style="fill:var(--color3, #2196f3)"/></symbol>

<symbol id="icon-CompanyCurv" viewBox="0 0 34 32"><path fill="#afb1b8" d="M5.643 31.382c.012 0 .024.003.035.007s.021.011.029.018l.166.159c-.129.129-.288.231-.467.302-.21.076-.435.113-.663.108-.214.004-.426-.031-.623-.101-.178-.065-.338-.162-.469-.285-.134-.128-.237-.277-.303-.44-.073-.182-.108-.373-.106-.565-.003-.194.036-.386.114-.567.073-.164.182-.314.322-.44.142-.124.312-.222.499-.287.205-.069.422-.103.642-.101.204-.004.407.027.596.092.165.062.316.148.447.254l-.139.17c-.01.012-.022.022-.035.031-.016.01-.036.014-.056.013-.022-.001-.042-.008-.06-.018l-.075-.045-.104-.058c-.045-.021-.091-.04-.139-.056-.062-.019-.125-.034-.189-.045-.082-.013-.164-.019-.247-.018-.158-.002-.315.024-.461.076-.136.048-.26.121-.361.213-.104.098-.183.214-.235.339-.058.144-.087.295-.085.448-.002.155.026.309.085.455.051.125.129.239.231.338.095.092.213.163.345.209.136.049.281.073.428.072.085.001.17-.004.253-.014.137-.015.268-.056.384-.121.058-.033.113-.071.164-.112.021-.018.049-.028.079-.029zM10.441 30.583c.003.192-.035.382-.112.561-.068.163-.174.311-.313.436s-.306.222-.491.286c-.407.135-.856.135-1.263 0-.184-.065-.35-.163-.488-.287-.138-.127-.246-.277-.316-.44-.15-.364-.15-.761 0-1.125.071-.164.178-.314.316-.442.139-.12.305-.214.488-.276.406-.137.857-.137 1.263 0 .185.065.351.163.49.287.137.125.243.273.314.435.077.181.115.372.112.565zm-.436 0c.003-.153-.023-.306-.079-.451-.047-.125-.122-.24-.222-.338-.097-.093-.217-.166-.351-.213-.296-.099-.623-.099-.918 0-.134.048-.254.12-.351.213-.101.097-.178.212-.224.338-.106.294-.106.609 0 .902.047.125.123.24.224.338.098.092.217.164.351.211.296.096.622.096.918 0 .134-.047.254-.119.351-.211.1-.098.175-.213.222-.338.056-.145.082-.298.079-.451zM13.715 31.057l.044.101c.017-.036.031-.069.048-.101.016-.034.034-.067.054-.099l1.062-1.677c.021-.029.039-.047.06-.052.028-.007.058-.011.087-.009h.314v2.727h-.372v-2.09c-.002-.031-.002-.063 0-.094l-1.068 1.7c-.014.025-.035.047-.062.062s-.059.023-.091.023h-.06c-.032 0-.064-.007-.091-.022s-.049-.037-.062-.062l-1.099-1.711v2.189h-.359V29.22h.314c.029-.001.059.002.087.009.026.011.046.03.058.052l1.084 1.678c.021.031.039.064.054.097zM17.71 30.921v1.021h-.415v-2.723h.926c.175-.003.349.017.517.06.134.033.259.091.366.17.092.074.163.165.208.267.049.111.073.229.071.348.002.119-.024.238-.077.348-.05.105-.127.198-.224.273-.107.082-.232.143-.368.18-.162.045-.331.066-.501.063l-.503-.007zm0-.292h.503c.109.001.218-.013.322-.042.086-.025.165-.065.233-.117.062-.05.111-.112.141-.18.034-.073.051-.151.05-.229.005-.076-.009-.151-.042-.222s-.082-.134-.145-.186c-.159-.108-.358-.16-.559-.146h-.503v1.123zM23.294 31.946h-.328c-.033.001-.065-.008-.091-.025-.024-.017-.042-.039-.054-.063l-.282-.659H21.12l-.293.659c-.011.024-.029.045-.052.061-.026.018-.06.028-.093.027h-.328l1.246-2.727h.432l1.263 2.727zm-2.057-1.012h1.172l-.494-1.11c-.038-.084-.069-.169-.093-.256l-.048.143c-.015.043-.031.083-.046.116l-.49 1.108zM25.089 29.232c.025.012.046.029.062.049l1.818 2.056V29.22h.372v2.727h-.208c-.029.001-.059-.005-.085-.016-.026-.013-.048-.03-.066-.05l-1.816-2.054c.002.031.002.063 0 .094v2.027h-.372v-2.727h.22c.026-.001.051.004.075.013zM30.402 30.862v1.083h-.415v-1.083l-1.149-1.642h.372c.032-.002.064.007.089.023.023.018.042.038.056.061l.719 1.059c.029.045.054.087.075.126s.037.078.052.116l.054-.117c.02-.043.044-.085.071-.125l.708-1.067c.015-.021.033-.041.054-.058.025-.019.057-.028.089-.027h.376l-1.151 1.65zM13.51 24.642c.181.02.364.036.548.05 2.803-1.089 5.174-2.872 6.817-5.126s2.485-4.878 2.421-7.546l-3.089-2.684c.628 2.84.334 5.776-.848 8.479s-3.208 5.067-5.849 6.827z" style="fill:var(--color2, #afb1b8)"/><path fill="#afb1b8" d="m12.407 24.518.083.014c2.822-1.754 4.974-4.203 6.176-7.03s1.402-5.904.571-8.83l-4.4-3.823c1.78 3.142 2.496 6.659 2.066 10.14s-1.989 6.786-4.496 9.529zM27.328 15.172c-.747 2.931-2.563 5.574-5.177 7.537-.763.577-1.587 1.09-2.459 1.534 2.128-.543 4.085-1.504 5.718-2.809s2.9-2.917 3.703-4.714l-1.784-1.549z" style="fill:var(--color2, #afb1b8)"/><path fill="#afb1b8" d="m26.628 14.741-2.541-2.207c-.049 2.517-.872 4.976-2.385 7.123s-3.66 3.902-6.217 5.084h.012c.57 0 1.139-.03 1.706-.088 2.39-.848 4.502-2.196 6.147-3.926s2.771-3.785 3.278-5.985zM12.774 3.237 9.743.6c-2.709.91-5.04 2.509-6.686 4.588S.526 9.73.517 12.254c.01 2.789 1.09 5.495 3.07 7.69s4.745 3.754 7.859 4.43c2.78-2.943 4.407-6.578 4.646-10.38s-.924-7.569-3.319-10.757zM33.631 14.335c-.011-3.309-1.529-6.479-4.221-8.818s-6.342-3.658-10.15-3.668c-1.76-.002-3.504.281-5.146.832l18.557 16.123c.635-1.425.961-2.941.96-4.469z" style="fill:var(--color2, #afb1b8)"/></symbol>

<symbol id="icon-Company" viewBox="0 0 26 32"><path fill="#afb1b8" d="M10.953 1.934h-.087c-.134-.008-.269-.011-.403-.015h-.291c-.254 0-.513.006-.771.02-.019-.001-.039-.001-.058 0-2.332.132-4.618.715-6.73 1.717l-.277.133v14.17l.648-.22c.568-.195 1.174-.371 1.8-.534 1.694-.435 3.433-.666 5.181-.688v1.862c-.232.002-.457.008-.682.02H9.23c-1.345.074-2.68.279-3.986.612-1.654.414-3.249 1.036-4.749 1.85V2.687c1.557-.908 3.234-1.59 4.982-2.026C7.011.265 8.588.062 10.172.056h.274c.327.008.646.023.946.046.789.055 1.572.18 2.339.373v1.833c-.745-.174-1.503-.288-2.267-.342-.015-.001-.031-.003-.046-.004-.158-.013-.316-.027-.464-.027zm3.225 1.873c.406.031.827.046 1.253.046 1.665-.006 3.323-.219 4.936-.633 1.653-.416 3.248-1.038 4.747-1.852v17.85c-1.558.908-3.236 1.59-4.983 2.026-1.534.395-3.111.597-4.695.604-1.2.01-2.397-.131-3.562-.42V3.462c.275.063.559.122.847.171.473.08.971.138 1.457.174zm9.084.138-.648.218c-.596.2-1.196.379-1.8.539-1.758.452-3.565.684-5.38.69-.423 0-.811-.011-1.187-.036l-.516-.034v14.577l.444.039c.411.036.835.054 1.263.054 1.429-.006 2.853-.19 4.237-.548 1.14-.286 2.249-.684 3.311-1.19l.277-.133V3.946zM1.752 27.072c-.093-.097-.205-.172-.329-.223s-.257-.074-.391-.069c-.142-.002-.284.025-.416.078-.121.048-.231.121-.324.213-.091.093-.163.204-.209.326-.051.128-.076.264-.074.402v2.428c-.006.171.027.341.096.498.057.124.14.235.243.325.097.082.211.141.334.173.118.033.24.05.363.05.135.001.269-.028.392-.085.121-.053.231-.129.324-.225.09-.094.162-.205.212-.326.052-.122.078-.254.078-.387v-.272h-.635v.216c.002.074-.011.147-.037.216-.021.052-.052.098-.092.137-.039.032-.084.056-.133.07-.043.014-.088.022-.133.023-.057.007-.114-.002-.166-.025s-.098-.059-.132-.105c-.06-.098-.089-.211-.084-.325v-2.264c-.004-.126.023-.25.078-.363.033-.051.08-.092.135-.118s.116-.036.176-.028c.055-.002.109.009.158.033s.092.059.125.103c.071.093.108.208.105.326v.21h.628v-.247c.001-.145-.025-.289-.078-.425-.047-.127-.119-.243-.212-.342zM5.522 27.044c-.202-.171-.458-.265-.722-.267-.129.001-.257.024-.379.068-.123.044-.237.112-.335.199-.105.095-.189.21-.246.34-.064.148-.095.309-.092.47v2.329c-.004.164.027.327.092.477.057.125.141.236.246.326.097.09.211.16.335.205.121.045.25.068.379.068s.258-.023.379-.068c.126-.046.243-.115.343-.205.101-.091.183-.202.24-.326.065-.15.097-.313.092-.477v-2.329c.003-.162-.028-.322-.092-.47-.056-.128-.138-.244-.24-.34zm-.296 3.139c.005.062-.003.125-.025.183s-.056.111-.101.154c-.084.07-.19.109-.299.109s-.215-.038-.299-.109c-.045-.043-.079-.096-.101-.154s-.03-.121-.025-.183v-2.329c-.005-.062.003-.125.025-.183s.056-.111.101-.154c.084-.07.19-.109.299-.109s.215.039.299.109c.045.043.079.096.101.154s.03.121.025.183v2.329zM10.475 31.223v-4.409h-.61l-.801 2.334h-.011l-.808-2.334h-.604v4.409h.63v-2.682h.011l.617 1.896h.314l.622-1.896h.011v2.682h.63zM14.053 27.124c-.097-.109-.219-.192-.356-.241-.147-.048-.302-.071-.457-.068h-.936v4.409h.628v-1.722h.324c.196.009.391-.032.567-.12.143-.079.262-.196.345-.337.073-.117.122-.248.144-.384.025-.166.036-.334.034-.501.006-.212-.015-.423-.062-.63-.042-.153-.122-.292-.232-.405zm-.324 1.344c-.003.08-.023.158-.058.229-.036.068-.093.122-.162.155-.093.042-.195.061-.296.055h-.287v-1.499h.324c.098-.005.195.014.283.055.065.037.117.094.147.163.034.077.053.161.055.246v.293c0 .103.006.208 0 .303h-.006zM17.029 26.815h-.515l-.971 4.409h.628l.185-.947h.856l.185.947h.628l-.996-4.409zm-.58 2.861.309-1.598h.011l.308 1.598h-.628zM21.088 29.471h-.011l-.949-2.656h-.604v4.409h.628v-2.651h.013l.96 2.651h.591v-4.409h-.628v2.656zM24.926 26.815l-.505 1.753h-.013l-.505-1.753h-.665l.863 2.545v1.863h.628V29.36l.863-2.545h-.665z" style="fill:var(--color2, #afb1b8)"/></symbol>

<symbol id="icon-Co" viewBox="0 0 64 32"><path fill="#afb1b8" d="m22.943 4.279 4.231 4.005-7.854-.005v19.434h20.528v-7.43l4.226 4.001V4.279H22.942zm16.72 15.534L27.666 8.456h11.997v11.357zm-3.725 5.058H22.569v-13.07h.945v12.185h12.424v.885zm-10.212 5.43-.494 1.017-.494-1.017h-.414l.721 1.356v.79h.374v-.79l.719-1.356h-.413zm.621 2.146.174-.5h.831l.175.5h.389l-.812-2.146h-.335l-.811 2.146h.388zm.589-1.69.311.89h-.622l.311-.89zm1.967.838c-.054.083-.081.173-.081.273 0 .181.063.328.19.441.128.112.298.168.51.168s.395-.057.548-.172l.121.143h.416l-.315-.373c.124-.169.186-.386.186-.65h-.311c0 .144-.03.276-.09.394l-.414-.489.146-.106c.103-.075.177-.149.223-.224s.068-.158.068-.248c0-.136-.05-.249-.15-.34-.099-.092-.227-.139-.383-.139-.173 0-.311.049-.413.147s-.153.23-.153.398c0 .069.016.14.049.214s.092.163.175.268c-.159.114-.266.213-.32.296zm.968.475c-.105.081-.218.121-.339.121-.107 0-.193-.031-.256-.093s-.096-.142-.096-.242c0-.115.059-.217.177-.307l.046-.032.469.553zm-.385-.951c-.101-.125-.152-.228-.152-.311 0-.072.021-.131.062-.178s.097-.071.167-.071c.065 0 .118.02.161.06s.063.087.063.143c0 .084-.03.154-.091.208l-.046.037-.164.112zm3.494 1.166c.147-.129.232-.308.254-.537h-.371c-.02.153-.066.263-.14.329s-.184.099-.33.099c-.16 0-.282-.061-.366-.183s-.124-.299-.124-.531v-.19c.002-.229.046-.402.133-.52.087-.119.212-.178.374-.178.14 0 .245.034.317.103.073.068.118.179.136.333h.371c-.024-.235-.108-.417-.252-.545s-.335-.193-.572-.193c-.176 0-.331.042-.466.125-.134.084-.236.202-.308.357s-.108.333-.108.535v.201c.003.198.04.371.111.52s.171.265.301.346c.131.081.282.121.453.121.245 0 .441-.064.588-.192zm2.192-.301c.073-.159.109-.344.109-.554v-.119c-.001-.209-.038-.393-.112-.55s-.178-.279-.314-.363c-.135-.084-.289-.127-.464-.127s-.33.043-.466.128c-.135.084-.239.207-.314.367s-.111.345-.111.554v.121c.001.205.038.387.112.544s.18.279.315.364c.137.084.292.127.466.127.176 0 .331-.042.466-.127.136-.086.24-.207.313-.366zm-.4-1.213c.09.127.136.309.136.547v.112c0 .242-.045.426-.134.551s-.215.189-.38.189c-.163 0-.291-.064-.383-.193s-.137-.311-.137-.547v-.124c.002-.231.048-.409.139-.535.091-.127.218-.19.379-.19.165 0 .292.063.382.19z" style="fill:var(--color2, #afb1b8)"/></symbol>

<symbol id="icon-astronauta-1" viewBox="0 0 32 32"><path fill="#2196f3" d="M31.974 4.524c-.063-.193-.229-.333-.43-.363l-1.91-.278-.855-1.731c-.179-.365-.777-.365-.956 0l-.855 1.731-1.91.278c-.201.029-.367.17-.431.363-.062.193-.011.405.135.547l1.383 1.348-.326 1.903c-.034.2.048.402.212.522.166.121.382.135.562.04l1.709-.899 1.709.899c.078.041.164.061.249.061.11 0 .221-.034.314-.102.164-.119.246-.322.212-.522l-.326-1.903 1.383-1.348c.145-.142.197-.354.135-.547zm-2.463 1.327c-.125.122-.183.299-.153.472l.191 1.114-1-.526c-.078-.041-.163-.061-.249-.061s-.17.02-.249.061l-1.001.526.191-1.114c.03-.173-.028-.349-.153-.472l-.81-.789 1.119-.163c.174-.025.324-.134.402-.292l.5-1.013.5 1.013c.078.157.228.267.402.292l1.119.163-.809.789zM26.134 20.522h-1.067v1.067h1.067v-1.067zM26.134 22.656h-1.067v1.067h1.067v-1.067zM27.2 21.589h-1.067v1.067H27.2v-1.067zM25.067 21.589H24v1.067h1.067v-1.067zM22.4 26.389h-1.067v1.067H22.4v-1.067zM22.4 28.522h-1.067v1.067H22.4v-1.067zM23.467 27.456H22.4v1.067h1.067v-1.067zM21.333 27.456h-1.067v1.067h1.067v-1.067zM16 24.256h-1.067v1.067H16v-1.067zM16 26.389h-1.067v1.067H16v-1.067zM17.067 25.322H16v1.067h1.067v-1.067zM14.933 25.322h-1.067v1.067h1.067v-1.067zM5.867 6.122H4.8v1.067h1.067V6.122zM5.867 8.255H4.8v1.067h1.067V8.255z" style="fill:var(--color3, #2196f3)"/><path fill="#2196f3" d="M6.933 7.189H5.866v1.067h1.067V7.189zM4.8 7.189H3.733v1.067H4.8V7.189z" style="fill:var(--color3, #2196f3)"/><path fill="#212121" d="M24.715 14.159c-.287-.388-.709-.637-1.188-.705-.481-.068-.956.058-1.34.352l-1.252.96-1.898 1.417-1.358-.541c2.421-1.086 4.114-3.508 4.114-6.32 0-3.823-3.123-6.933-6.961-6.933s-6.961 3.11-6.961 6.933c0 1.386.414 2.674 1.12 3.758l-2.764-.024h-.005c-.009 0-.015.004-.023.005-.053.002-.105.013-.155.031-.013.005-.026.008-.038.013-.006.003-.013.003-.019.006l-3.233 1.596c-.001 0-.001 0-.001.001l-1.893.911c-.021.009-.042.021-.063.035-.755.502-1.012 1.489-.598 2.295.22.429.595.745 1.056.889.178.055.359.083.539.083.29 0 .577-.071.839-.211l1.388-.738 2.264-1.169 1.357-.008L2.2 22.211c-.001.001-.001.001-.002.001L.859 23.545c-.316.315-.49.732-.49 1.178s.174.863.49 1.179c.325.323.752.485 1.179.485s.854-.162 1.18-.485l1.314-1.309 1.741-1.3.901.897-1.762 1.754c0 .001-.001.001-.002.001l-1.339 1.333c-.316.315-.49.732-.49 1.178s.174.863.49 1.179c.325.323.753.485 1.18.485s.855-.162 1.18-.485l3.482-3.467c.001-.001.001-.001.001-.002l1.01-1-.004-.004c.006-.006.015-.009.022-.015l5.166-5.658 3.471.494c.025.004.05.005.075.005.065 0 .127-.015.187-.038.018-.006.033-.015.05-.023.019-.01.039-.015.058-.027l3.213-2.133c.012-.008.018-.021.029-.029.013-.01.029-.014.041-.026l1.271-1.191c.662-.62.753-1.635.212-2.362zM2.13 17.77c-.173.093-.37.111-.558.052-.187-.058-.338-.186-.427-.358-.161-.314-.068-.695.214-.902l1.314-.632.449 1.312-.992.528zm3.498-1.828-1.548.8-.439-1.283 2.027-1.001-.04 1.484zm15.099-6.62c0 .918-.219 1.785-.599 2.559l-4.181-1.899c-.044-.573-.341-1.075-.788-1.388l1.464-4.86c2.378.756 4.105 2.974 4.105 5.588zm-11.789 0c0-3.235 2.644-5.867 5.894-5.867.253 0 .5.021.745.052l-1.432 4.754c-.019-.001-.037-.006-.057-.006-1.033 0-1.873.837-1.873 1.867s.84 1.867 1.873 1.867c.694 0 1.294-.383 1.618-.945l3.862 1.755c-1.075 1.446-2.795 2.39-4.737 2.39-3.25 0-5.894-2.632-5.894-5.867zm5.956.8c0 .441-.362.8-.806.8s-.806-.359-.806-.8c0-.441.362-.8.806-.8s.806.359.806.8zM2.465 25.146c-.236.234-.619.234-.854.001-.114-.114-.176-.263-.176-.423s.062-.309.176-.421l.962-.958.851.848-.959.955zm3.214 3.734c-.236.234-.619.235-.855.001-.114-.114-.176-.263-.176-.423s.062-.309.176-.421l.963-.959.852.848-.96.955zm3.481-3.469c-.001 0-.001 0-.002.001l-1.765 1.76-.852-.848 1.763-1.755s.001-.001.002-.001c.04-.04.065-.088.09-.135.007-.014.02-.026.026-.04.017-.041.019-.085.026-.129.003-.025.014-.047.014-.073 0-.036-.013-.07-.02-.106-.006-.032-.006-.065-.019-.095-.02-.05-.055-.094-.091-.138-.01-.012-.014-.027-.025-.038h-.001c-.001 0-.001-.002-.001-.002l-1.607-1.6c-.017-.017-.039-.024-.058-.038-.028-.022-.055-.042-.087-.058-.03-.015-.061-.024-.093-.033-.034-.01-.067-.017-.103-.02-.033-.002-.063.001-.095.005-.036.004-.069.009-.104.02-.034.011-.063.027-.094.045-.02.011-.042.015-.061.029L4.23 23.486l-.901-.897 2.399-2.386 4.361 4.289-.928.919zm6.819-7.017c-.015-.002-.03.004-.045.003-.039-.002-.076.001-.115.007-.03.005-.059.011-.088.021-.034.012-.065.028-.097.047-.03.018-.057.037-.083.061-.013.011-.028.017-.04.029l-4.698 5.146-4.328-4.257 2.833-2.818c.209-.208.21-.546.002-.755-.105-.105-.243-.157-.381-.156v-.001l-2.219.013.028-1.607 3.104.027c1.265 1.294 3.029 2.101 4.981 2.101.437 0 .864-.045 1.279-.123.04.032.079.065.13.085l2.41.96.152.758.178.885-3.003-.427zm4.041.178-.313-1.558 1.446-1.08.947 1.257-2.08 1.381zm3.754-2.831-.838.785-.931-1.236.831-.637c.155-.119.351-.168.543-.143.193.027.364.128.48.284.217.292.18.699-.085.947z" style="fill:var(--color4, #212121)"/><path fill="#212121" d="m13.602 18.544-2.143-2.133c-.207-.207-.545-.207-.753 0l-2.142 2.133c-.1.101-.157.236-.157.378s.056.278.157.378l2.142 2.133c.104.103.241.155.377.155s.273-.052.376-.155l2.143-2.133c.1-.1.157-.236.157-.378s-.057-.278-.157-.378zm-2.519 1.759-1.387-1.381 1.387-1.381 1.387 1.381-1.387 1.381zM17.164 5.071l-.258 1.036c.071.018 1.738.452 1.738 2.149h1.067c0-2.017-1.666-2.965-2.547-3.185zM19.711 9.322h-1.067v1.067h1.067V9.322z" style="fill:var(--color4, #212121)"/></symbol>

<symbol id="icon-diagrama-1" viewBox="0 0 32 32"><path fill="#2196f3" d="M14.926 14.965h1.066v4.798h-1.066v-4.797zM19.19 17.097h1.066v2.665H19.19v-2.665zM10.661 18.696h1.066v1.066h-1.066v-1.066zM7.463 18.163h1.066v1.599H7.463v-1.599z" style="fill:var(--color3, #2196f3)"/><path fill="#212121" d="M1.599 28.291h25.587c.883 0 1.599-.716 1.599-1.599V24.56c0-.883-.716-1.599-1.599-1.599h-.533V9.668L29.681 6.8c.703.346 1.553.136 2.013-.499s.396-1.508-.152-2.068-1.42-.644-2.065-.198c-.644.446-.873 1.292-.542 2.002L26.654 8.2V6.97c0-.883-.716-1.599-1.599-1.599H3.733c-.883 0-1.599.716-1.599 1.599v15.992h-.533c-.883 0-1.599.716-1.599 1.599v2.132c0 .883.716 1.599 1.599 1.599zM30.384 4.837c.294 0 .533.239.533.533s-.239.533-.533.533c-.294 0-.533-.239-.533-.533s.239-.533.533-.533zM3.198 6.969c0-.294.239-.533.533-.533h21.322c.294 0 .533.239.533.533v2.239l-1.066 1.013V8.035c0-.294-.239-.533-.533-.533H4.797c-.294 0-.533.239-.533.533v13.326c0 .294.239.533.533.533h19.19c.294 0 .533-.239.533-.533v-9.674l1.066-1.01v12.284H3.198V6.969zm4.798 6.93c-.721-.002-1.354.478-1.546 1.174s.105 1.433.725 1.801c.62.368 1.41.276 1.928-.226l1.853.93c.215.108.476.057.636-.123l3.939-4.431 3.872 2.901c.208.156.498.139.686-.039l3.365-3.188v8.131H5.33V8.569h18.124v2.66l-3.771 3.572-3.904-2.927c-.222-.166-.534-.135-.718.072l-3.993 4.493-1.493-.746c.011-.064.018-.129.02-.193 0-.883-.716-1.599-1.599-1.599zm.533 1.599c0 .294-.239.533-.533.533s-.533-.239-.533-.533c0-.294.239-.533.533-.533s.533.239.533.533zm3.198 8.529h5.331v.533c0 .294-.239.533-.533.533h-4.264c-.294 0-.533-.239-.533-.533v-.533zm-10.661.533c0-.294.239-.533.533-.533h9.062v.533c0 .883.716 1.599 1.599 1.599h4.264c.883 0 1.599-.716 1.599-1.599v-.533h9.062c.294 0 .533.239.533.533v2.132c0 .294-.239.533-.533.533H1.598c-.294 0-.533-.239-.533-.533V24.56z" style="fill:var(--color4, #212121)"/></symbol>

<symbol id="icon-reloj-1" viewBox="0 0 31 32"><path fill="#212121" d="M29.317 13.732C29.315 6.147 23.165-.001 15.579 0S1.846 6.152 1.847 13.738c.001 5.975 3.865 11.264 9.557 13.081.054.017.111.026.168.026.108 0 .214-.029.307-.084.121-.072.212-.186.254-.32l3.469-10.994c.948-.005 1.713-.778 1.708-1.726s-.777-1.713-1.726-1.708c-.255.001-.507.06-.736.172l-4.582-4.583c-.227-.22-.59-.213-.809.014-.214.222-.214.573 0 .795l4.58 4.585c-.351.717-.151 1.583.481 2.072l-3.305 10.476c-6.531-2.406-9.876-9.651-7.47-16.182s9.651-9.876 16.182-7.47 9.876 9.651 7.47 16.182c-1.175 3.191-3.591 5.772-6.697 7.156l-.357-1.682c-.065-.309-.369-.507-.678-.441-.097.021-.188.067-.262.133l-3.443 3.074c-.236.21-.257.572-.047.808.068.077.156.134.254.165l4.396 1.403c.301.097.623-.069.72-.37.031-.095.036-.196.015-.294l-.351-1.65c5.083-2.143 8.384-7.128 8.372-12.644zm-13.734-.572c.316 0 .572.256.572.572s-.256.572-.572.572c-.316 0-.572-.256-.572-.572s.256-.572.572-.572zm1.885 13.339 1.96-1.748.541 2.549-2.501-.801z" style="fill:var(--color4, #212121)"/><path fill="#2196f3" d="M15.01 2.858v1.145c0 .316.256.572.572.572s.572-.256.572-.572V2.858c0-.316-.256-.572-.572-.572s-.572.256-.572.572zM4.709 13.16c-.316 0-.572.256-.572.572s.256.572.572.572h1.145c.316 0 .572-.256.572-.572s-.256-.572-.572-.572H4.709zM26.456 14.304c.316 0 .572-.256.572-.572s-.256-.572-.572-.572h-1.145c-.316 0-.572.256-.572.572s.256.572.572.572h1.145z" style="fill:var(--color3, #2196f3)"/></symbol>

<symbol id="icon-antena-1" viewBox="0 0 32 32"><path fill="#212121" d="m30.773 22.098-8.443-8.505.937-4.615c.242.094.499.144.758.146h.006c1.192.014 2.17-.941 2.184-2.133s-.941-2.17-2.133-2.184c-1.192-.014-2.17.941-2.184 2.133-.003.255.039.509.125.749l-4.96.605L8.972.161C8.873.06 8.737.002 8.595.001c-.14.001-.274.056-.373.155L6.709 1.66c-.208.208-.208.546 0 .754l.814.826C4.37 9.038 5.394 16.218 10.042 20.903c.043.041.092.074.146.098-.034.18-.051.364-.052.547v6.187h-6.4c-1.472.002-2.665 1.195-2.667 2.667v1.067c0 .295.239.533.533.533h24.533c.295 0 .533-.239.533-.533v-1.067c-.002-1.472-1.195-2.665-2.667-2.667h-6.4v-2.742c1.003.21 2.024.317 3.049.32 2.458-.003 4.877-.615 7.04-1.783l.818.823c.099.101.235.159.377.16.14-.001.274-.056.373-.155l1.513-1.504c.208-.208.208-.546 0-.754zM23.28 6.233c.418-.415 1.093-.414 1.508.004s.414 1.093-.004 1.508c-.2.199-.47.31-.752.31h-.003c-.589-.003-1.064-.483-1.061-1.072.002-.282.115-.552.314-.751h-.002zm-1.256 3.505-.598 2.946-1.175-1.182 1.774-1.763zm-.605-.902-1.92 1.909-1.485-1.493 3.405-.415zM24.004 28.8c.884 0 1.6.716 1.6 1.6v.533H2.137V30.4c0-.884.716-1.6 1.6-1.6h20.267zm-7.467-2.133v1.067h-5.333v-1.067h5.333zM11.204 25.6v-4.053c0-1.294 1.196-2.347 2.667-2.347s2.667 1.053 2.667 2.347V25.6h-5.333zm6.4-1.696v-2.357c0-1.882-1.675-3.413-3.733-3.413-1.331-.02-2.576.657-3.281 1.786C6.532 15.646 5.619 9.275 8.311 4.033l18.602 18.708c-2.872 1.461-6.165 1.873-9.309 1.163zm11.289-.684L7.836 2.039l.755-.752 7.935 7.98c.004 0 .006.007.01.01l13.115 13.191-.757.752z" style="fill:var(--color4, #212121)"/><path fill="#2196f3" d="M13.876 20.267h-.005c-.884-.001-1.601.714-1.602 1.598s.714 1.601 1.598 1.602h.005c.884.001 1.601-.714 1.602-1.598s-.714-1.601-1.598-1.602zm.373 1.978c-.1.1-.236.156-.378.155-.295-.002-.532-.242-.531-.536.001-.141.057-.276.157-.375s.233-.154.373-.155c.295.002.532.241.53.536-.001.141-.057.276-.157.375h.005z" style="fill:var(--color3, #2196f3)"/></symbol></defs></svg>